<svg width="28" height="28" viewBox="0 0 28 28" fill="none" xmlns="http://www.w3.org/2000/svg">
<path fill-rule="evenodd" clip-rule="evenodd" d="M10.0625 5.25V2.625H17.9375V5.25H10.0625ZM7.4375 5.25V1.75C7.4375 1.28587 7.62187 0.840752 7.95006 0.512563C8.27825 0.184375 8.72337 0 9.1875 0L18.8125 0C19.2766 0 19.7217 0.184375 20.0499 0.512563C20.3781 0.840752 20.5625 1.28587 20.5625 1.75V5.25H24.9375C25.2856 5.25 25.6194 5.38828 25.8656 5.63442C26.1117 5.88056 26.25 6.2144 26.25 6.5625C26.25 6.9106 26.1117 7.24444 25.8656 7.49058C25.6194 7.73672 25.2856 7.875 24.9375 7.875H24.2988L22.9985 24.7677C22.931 25.647 22.5341 26.4684 21.8872 27.0677C21.2402 27.667 20.3909 27.9999 19.509 28H8.491C7.60913 27.9999 6.75979 27.667 6.11283 27.0677C5.46586 26.4684 5.06896 25.647 5.0015 24.7677L3.70125 7.875H3.0625C2.7144 7.875 2.38056 7.73672 2.13442 7.49058C1.88828 7.24444 1.75 6.9106 1.75 6.5625C1.75 6.2144 1.88828 5.88056 2.13442 5.63442C2.38056 5.38828 2.7144 5.25 3.0625 5.25H7.4375ZM6.335 7.875H21.665L20.3805 24.5665C20.3638 24.7862 20.2647 24.9916 20.1031 25.1415C19.9416 25.2914 19.7294 25.3748 19.509 25.375H8.491C8.27061 25.3748 8.05844 25.2914 7.89687 25.1415C7.7353 24.9916 7.63625 24.7862 7.6195 24.5665L6.335 7.875Z" fill="#AF2121"/>
</svg>
